<svg width="280" height="36" viewBox="0 0 280 36" fill="none" xmlns="http://www.w3.org/2000/svg">
<path d="M13.992 35.48C10.696 35.48 8.136 34.344 6.312 32.072V33.848C6.312 34.168 6.2 34.44 5.976 34.664C5.784 34.888 5.512 35 5.16 35H1.368C1.048 35 0.776 34.888 0.552 34.664C0.328 34.44 0.216 34.168 0.216 33.848V2.072C0.216 1.72 0.328 1.448 0.552 1.256C0.776 1.032 1.048 0.919998 1.368 0.919998H5.448C5.8 0.919998 6.072 1.032 6.264 1.256C6.488 1.448 6.6 1.72 6.6 2.072V12.728C8.424 10.616 10.888 9.56 13.992 9.56C17.224 9.56 19.704 10.616 21.432 12.728C23.16 14.84 24.088 17.576 24.216 20.936C24.248 21.32 24.264 21.832 24.264 22.472C24.264 23.144 24.248 23.672 24.216 24.056C24.088 27.512 23.16 30.28 21.432 32.36C19.704 34.44 17.224 35.48 13.992 35.48ZM12.216 30.344C15.672 30.344 17.512 28.216 17.736 23.96C17.768 23.64 17.784 23.16 17.784 22.52C17.784 21.88 17.768 21.4 17.736 21.08C17.512 16.824 15.672 14.696 12.216 14.696C10.424 14.696 9.048 15.272 8.088 16.424C7.16 17.544 6.664 18.904 6.6 20.504L6.552 22.328L6.6 24.2C6.696 25.928 7.192 27.384 8.088 28.568C8.984 29.752 10.36 30.344 12.216 30.344ZM40.6455 35.48C36.9015 35.48 34.0055 34.52 31.9575 32.6C29.9095 30.648 28.8055 27.992 28.6455 24.632L28.5975 22.52L28.6455 20.408C28.8055 17.08 29.9255 14.44 32.0055 12.488C34.0855 10.536 36.9655 9.56 40.6455 9.56C44.3255 9.56 47.2055 10.536 49.2855 12.488C51.3655 14.44 52.4855 17.08 52.6455 20.408C52.6775 20.792 52.6935 21.496 52.6935 22.52C52.6935 23.544 52.6775 24.248 52.6455 24.632C52.4855 27.992 51.3815 30.648 49.3335 32.6C47.2855 34.52 44.3895 35.48 40.6455 35.48ZM40.6455 30.728C42.3415 30.728 43.6535 30.2 44.5815 29.144C45.5095 28.056 46.0215 26.472 46.1175 24.392C46.1495 24.072 46.1655 23.448 46.1655 22.52C46.1655 21.592 46.1495 20.968 46.1175 20.648C46.0215 18.568 45.5095 17 44.5815 15.944C43.6535 14.856 42.3415 14.312 40.6455 14.312C38.9495 14.312 37.6375 14.856 36.7095 15.944C35.7815 17 35.2695 18.568 35.1735 20.648L35.1255 22.52L35.1735 24.392C35.2695 26.472 35.7815 28.056 36.7095 29.144C37.6375 30.2 38.9495 30.728 40.6455 30.728ZM69.0518 35.48C65.3078 35.48 62.4118 34.52 60.3638 32.6C58.3158 30.648 57.2118 27.992 57.0518 24.632L57.0038 22.52L57.0518 20.408C57.2118 17.08 58.3318 14.44 60.4118 12.488C62.4918 10.536 65.3718 9.56 69.0518 9.56C72.7318 9.56 75.6118 10.536 77.6918 12.488C79.7718 14.44 80.8918 17.08 81.0518 20.408C81.0838 20.792 81.0998 21.496 81.0998 22.52C81.0998 23.544 81.0838 24.248 81.0518 24.632C80.8918 27.992 79.7878 30.648 77.7398 32.6C75.6918 34.52 72.7958 35.48 69.0518 35.48ZM69.0518 30.728C70.7478 30.728 72.0598 30.2 72.9878 29.144C73.9158 28.056 74.4278 26.472 74.5238 24.392C74.5558 24.072 74.5718 23.448 74.5718 22.52C74.5718 21.592 74.5558 20.968 74.5238 20.648C74.4278 18.568 73.9158 17 72.9878 15.944C72.0598 14.856 70.7478 14.312 69.0518 14.312C67.3558 14.312 66.0438 14.856 65.1158 15.944C64.1878 17 63.6758 18.568 63.5798 20.648L63.5318 22.52L63.5798 24.392C63.6758 26.472 64.1878 28.056 65.1158 29.144C66.0438 30.2 67.3558 30.728 69.0518 30.728ZM87.618 35C87.298 35 87.026 34.888 86.802 34.664C86.578 34.44 86.466 34.168 86.466 33.848V2.072C86.466 1.72 86.578 1.448 86.802 1.256C87.026 1.032 87.298 0.919998 87.618 0.919998H91.506C91.858 0.919998 92.13 1.032 92.322 1.256C92.546 1.448 92.658 1.72 92.658 2.072V18.488L100.722 10.856C100.818 10.792 100.978 10.664 101.202 10.472C101.394 10.312 101.586 10.2 101.778 10.136C101.97 10.072 102.21 10.04 102.498 10.04H106.962C107.282 10.04 107.538 10.136 107.73 10.328C107.922 10.52 108.018 10.776 108.018 11.096C108.018 11.384 107.858 11.672 107.538 11.96L97.65 21.224L108.738 33.128C109.058 33.448 109.218 33.72 109.218 33.944C109.218 34.264 109.106 34.52 108.882 34.712C108.69 34.904 108.45 35 108.162 35H103.602C103.154 35 102.818 34.952 102.594 34.856C102.402 34.728 102.146 34.504 101.826 34.184L92.658 24.536V33.848C92.658 34.168 92.546 34.44 92.322 34.664C92.13 34.888 91.858 35 91.506 35H87.618Z" fill="#0074E3"/>
<path d="M113.961 35C113.641 35 113.369 34.888 113.145 34.664C112.921 34.44 112.809 34.168 112.809 33.848V11.192C112.809 10.872 112.921 10.6 113.145 10.376C113.369 10.152 113.641 10.04 113.961 10.04H117.705C118.025 10.04 118.297 10.152 118.521 10.376C118.745 10.6 118.857 10.872 118.857 11.192V12.824C120.521 10.648 122.841 9.56 125.817 9.56C129.369 9.56 131.849 10.984 133.257 13.832C134.025 12.552 135.113 11.528 136.521 10.76C137.929 9.96 139.449 9.56 141.081 9.56C143.705 9.56 145.849 10.456 147.513 12.248C149.177 14.04 150.009 16.648 150.009 20.072V33.848C150.009 34.168 149.897 34.44 149.673 34.664C149.481 34.888 149.209 35 148.857 35H144.921C144.601 35 144.329 34.888 144.105 34.664C143.881 34.44 143.769 34.168 143.769 33.848V20.456C143.769 18.44 143.337 16.984 142.473 16.088C141.641 15.16 140.521 14.696 139.113 14.696C137.865 14.696 136.793 15.16 135.897 16.088C135.033 17.016 134.601 18.472 134.601 20.456V33.848C134.601 34.168 134.489 34.44 134.265 34.664C134.041 34.888 133.769 35 133.449 35H129.513C129.193 35 128.921 34.888 128.697 34.664C128.473 34.44 128.361 34.168 128.361 33.848V20.456C128.361 18.44 127.913 16.984 127.017 16.088C126.153 15.16 125.049 14.696 123.705 14.696C122.425 14.696 121.337 15.16 120.441 16.088C119.577 17.016 119.145 18.472 119.145 20.456V33.848C119.145 34.168 119.033 34.44 118.809 34.664C118.585 34.888 118.313 35 117.993 35H113.961ZM163.369 35.48C161.737 35.48 160.233 35.16 158.857 34.52C157.513 33.848 156.441 32.952 155.641 31.832C154.873 30.712 154.489 29.48 154.489 28.136C154.489 25.96 155.369 24.2 157.129 22.856C158.889 21.512 161.305 20.6 164.377 20.12L170.953 19.16V18.152C170.953 16.744 170.601 15.688 169.897 14.984C169.193 14.28 168.057 13.928 166.489 13.928C165.433 13.928 164.569 14.136 163.897 14.552C163.257 14.936 162.745 15.32 162.361 15.704C161.977 16.12 161.721 16.392 161.593 16.52C161.465 16.904 161.225 17.096 160.873 17.096H157.177C156.889 17.096 156.633 17 156.409 16.808C156.217 16.616 156.121 16.36 156.121 16.04C156.153 15.24 156.537 14.328 157.273 13.304C158.041 12.28 159.209 11.4 160.777 10.664C162.345 9.928 164.265 9.56 166.537 9.56C170.313 9.56 173.065 10.408 174.793 12.104C176.521 13.8 177.385 16.024 177.385 18.776V33.848C177.385 34.168 177.273 34.44 177.049 34.664C176.857 34.888 176.585 35 176.233 35H172.345C172.025 35 171.753 34.888 171.529 34.664C171.305 34.44 171.193 34.168 171.193 33.848V31.976C170.489 33 169.481 33.848 168.169 34.52C166.889 35.16 165.289 35.48 163.369 35.48ZM165.001 30.92C166.761 30.92 168.201 30.344 169.321 29.192C170.441 28.04 171.001 26.36 171.001 24.152V23.144L166.201 23.912C164.345 24.2 162.937 24.664 161.977 25.304C161.049 25.944 160.585 26.728 160.585 27.656C160.585 28.68 161.017 29.48 161.881 30.056C162.745 30.632 163.785 30.92 165.001 30.92ZM184.695 35C184.375 35 184.103 34.888 183.879 34.664C183.655 34.44 183.543 34.168 183.543 33.848V11.24C183.543 10.92 183.655 10.648 183.879 10.424C184.103 10.168 184.375 10.04 184.695 10.04H188.583C188.935 10.04 189.223 10.152 189.447 10.376C189.671 10.6 189.783 10.888 189.783 11.24V13.208C190.551 12.184 191.511 11.4 192.663 10.856C193.847 10.312 195.191 10.04 196.695 10.04H198.663C199.015 10.04 199.287 10.152 199.479 10.376C199.703 10.568 199.815 10.84 199.815 11.192V14.648C199.815 14.968 199.703 15.24 199.479 15.464C199.287 15.688 199.015 15.8 198.663 15.8H194.919C193.415 15.8 192.231 16.232 191.367 17.096C190.503 17.96 190.071 19.144 190.071 20.648V33.848C190.071 34.168 189.959 34.44 189.735 34.664C189.511 34.888 189.223 35 188.871 35H184.695ZM204.759 35C204.439 35 204.167 34.888 203.943 34.664C203.719 34.44 203.607 34.168 203.607 33.848V2.072C203.607 1.72 203.719 1.448 203.943 1.256C204.167 1.032 204.439 0.919998 204.759 0.919998H208.647C208.999 0.919998 209.271 1.032 209.463 1.256C209.687 1.448 209.799 1.72 209.799 2.072V18.488L217.863 10.856C217.959 10.792 218.119 10.664 218.343 10.472C218.535 10.312 218.727 10.2 218.919 10.136C219.111 10.072 219.351 10.04 219.639 10.04H224.103C224.423 10.04 224.679 10.136 224.871 10.328C225.063 10.52 225.159 10.776 225.159 11.096C225.159 11.384 224.999 11.672 224.679 11.96L214.791 21.224L225.879 33.128C226.199 33.448 226.359 33.72 226.359 33.944C226.359 34.264 226.247 34.52 226.023 34.712C225.831 34.904 225.591 35 225.303 35H220.743C220.295 35 219.959 34.952 219.735 34.856C219.543 34.728 219.287 34.504 218.967 34.184L209.799 24.536V33.848C209.799 34.168 209.687 34.44 209.463 34.664C209.271 34.888 208.999 35 208.647 35H204.759ZM239.529 35.48C235.977 35.48 233.145 34.456 231.033 32.408C228.953 30.328 227.849 27.416 227.721 23.672L227.673 22.472L227.721 21.272C227.881 17.624 229.001 14.76 231.081 12.68C233.193 10.6 236.009 9.56 239.529 9.56C243.305 9.56 246.217 10.712 248.265 13.016C250.345 15.32 251.385 18.392 251.385 22.232V23.24C251.385 23.56 251.273 23.832 251.049 24.056C250.825 24.28 250.537 24.392 250.185 24.392H234.249V24.776C234.313 26.536 234.793 28.024 235.689 29.24C236.617 30.424 237.881 31.016 239.481 31.016C241.369 31.016 242.889 30.28 244.041 28.808C244.329 28.456 244.553 28.232 244.713 28.136C244.905 28.04 245.177 27.992 245.529 27.992H249.657C249.945 27.992 250.185 28.088 250.377 28.28C250.601 28.44 250.713 28.648 250.713 28.904C250.713 29.672 250.249 30.584 249.321 31.64C248.425 32.664 247.129 33.56 245.433 34.328C243.737 35.096 241.769 35.48 239.529 35.48ZM244.857 20.36V20.216C244.857 18.328 244.377 16.808 243.417 15.656C242.489 14.504 241.193 13.928 239.529 13.928C237.865 13.928 236.569 14.504 235.641 15.656C234.713 16.808 234.249 18.328 234.249 20.216V20.36H244.857ZM265.745 35.48C262.513 35.48 260.033 34.44 258.305 32.36C256.577 30.28 255.649 27.512 255.521 24.056L255.473 22.472L255.521 20.936C255.617 17.576 256.529 14.84 258.257 12.728C260.017 10.616 262.513 9.56 265.745 9.56C268.849 9.56 271.313 10.616 273.137 12.728V2.072C273.137 1.72 273.249 1.448 273.473 1.256C273.697 1.032 273.969 0.919998 274.289 0.919998H278.369C278.721 0.919998 278.993 1.032 279.185 1.256C279.409 1.448 279.521 1.72 279.521 2.072V33.848C279.521 34.168 279.409 34.44 279.185 34.664C278.993 34.888 278.721 35 278.369 35H274.577C274.257 35 273.985 34.888 273.761 34.664C273.537 34.44 273.425 34.168 273.425 33.848V32.072C271.601 34.344 269.041 35.48 265.745 35.48ZM267.521 30.344C269.377 30.344 270.753 29.752 271.649 28.568C272.545 27.384 273.041 25.928 273.137 24.2C273.169 23.816 273.185 23.192 273.185 22.328C273.185 21.496 273.169 20.888 273.137 20.504C273.073 18.904 272.561 17.544 271.601 16.424C270.673 15.272 269.313 14.696 267.521 14.696C264.065 14.696 262.225 16.824 262.001 21.08L261.953 22.52L262.001 23.96C262.225 28.216 264.065 30.344 267.521 30.344Z" fill="#838383"/>
</svg>
